<svg width="287" height="69" viewBox="0 0 287 69" fill="none" xmlns="http://www.w3.org/2000/svg">
<g clip-path="url(#clip0_35_47)">
<path d="M92.7557 2.59092C92.7557 2.21482 92.8548 1.92842 93.0514 1.73172C93.2481 1.53572 93.5079 1.42882 93.8338 1.41162H118.198C118.985 1.41162 119.378 1.82152 119.378 2.64272V7.10462C119.378 7.41252 119.276 7.69112 119.071 7.93872C118.866 8.18632 118.574 8.31052 118.198 8.31052H100.22V18.5696H104.4C105.272 18.5696 106.179 18.5739 107.119 18.5818C108.06 18.5911 108.965 18.5947 109.837 18.5947H114.018C114.326 18.5947 114.59 18.6844 114.813 18.8646C115.035 19.0441 115.146 19.3391 115.146 19.749V24.109C115.146 24.4169 115.048 24.6947 114.852 24.9424C114.655 25.1908 114.385 25.3149 114.043 25.3149H100.22V38.4201C100.22 39.1386 99.8175 39.4975 99.0136 39.4975H93.7821C93.0987 39.4638 92.7556 39.1041 92.7556 38.4201L92.7557 2.59092Z" fill="white"/>
<path d="M131.484 24.0323C131.484 25.4687 131.689 26.76 132.099 27.9049C132.51 29.0505 133.087 30.021 133.831 30.8164C134.575 31.611 135.463 32.2183 136.498 32.6368C137.532 33.056 138.682 33.2656 139.948 33.2656C141.282 33.2656 142.478 33.0431 143.539 32.5987C144.598 32.1544 145.491 31.5256 146.219 30.7137C146.945 29.9018 147.501 28.927 147.886 27.7893C148.27 26.653 148.463 25.4004 148.463 24.0322V2.54002C148.463 2.23212 148.573 1.96722 148.794 1.74472C149.015 1.52292 149.297 1.41162 149.639 1.41162H154.597C154.955 1.41162 155.256 1.52292 155.505 1.74472C155.75 1.96722 155.875 2.23212 155.875 2.54002V24.3144C155.875 26.9646 155.447 29.2774 154.593 31.2521C153.739 33.2268 152.586 34.8728 151.133 36.1893C149.682 37.5058 147.99 38.4892 146.06 39.1388C144.129 39.7884 142.087 40.1136 139.935 40.1136C137.782 40.1136 135.74 39.7669 133.809 39.0742C131.878 38.3822 130.189 37.3687 128.736 36.0357C127.283 34.702 126.13 33.0517 125.276 31.0856C124.422 29.1195 123.995 26.8627 123.995 24.3144V2.54002C123.995 2.26652 124.093 2.01022 124.29 1.77052C124.486 1.53082 124.739 1.41162 125.046 1.41162H130.279C130.535 1.41162 130.8 1.52292 131.073 1.74472C131.347 1.96722 131.484 2.23212 131.484 2.54002V24.0323Z" fill="white"/>
<path d="M184.163 11.5672C183.94 11.5672 183.735 11.5119 183.547 11.4007C183.359 11.2902 183.145 11.1401 182.907 10.9521L182.855 10.9263C182.53 10.6018 182.111 10.2429 181.599 9.84963C181.085 9.45623 180.512 9.08873 179.88 8.74633C179.247 8.40463 178.568 8.11393 177.84 7.87413C177.114 7.63513 176.374 7.51523 175.622 7.51523C174.665 7.51523 173.818 7.62223 173.084 7.83613C172.347 8.05003 171.733 8.34073 171.236 8.70833C170.741 9.07583 170.365 9.50723 170.108 10.0032C169.852 10.4992 169.723 11.029 169.723 11.5932C169.723 12.2091 169.915 12.7475 170.3 13.209C170.685 13.6705 171.206 14.0812 171.865 14.4401C172.522 14.799 173.279 15.1285 174.135 15.4278C174.989 15.7271 175.888 16.0222 176.828 16.3122C177.905 16.6374 178.973 16.9884 180.034 17.3638C181.093 17.7407 182.107 18.1635 183.073 18.6336C184.039 19.1037 184.941 19.6256 185.779 20.1977C186.616 20.7712 187.338 21.4288 187.946 22.1731C188.553 22.9168 189.031 23.7458 189.383 24.6603C189.733 25.5755 189.908 26.6056 189.908 27.7512C189.908 29.6147 189.532 31.2994 188.78 32.8039C188.027 34.3084 186.988 35.5955 185.663 36.6636C184.338 37.7324 182.782 38.5529 180.996 39.1257C179.208 39.6985 177.289 39.9849 175.237 39.9849C173.921 39.9849 172.613 39.8306 171.314 39.5233C170.014 39.2154 168.765 38.7796 167.57 38.2154C166.372 37.6505 165.24 36.9714 164.17 36.1761C163.102 35.3808 162.149 34.4878 161.312 33.4958V33.5216L161.26 33.419C160.884 32.9919 160.696 32.5985 160.696 32.2396C160.696 32.0515 160.747 31.8721 160.849 31.7005C160.951 31.5297 161.106 31.3416 161.312 31.1363L162.157 30.29C162.414 30.0682 162.687 29.8198 162.978 29.5463C163.268 29.2728 163.56 29.0252 163.85 28.8026C164.141 28.5801 164.41 28.392 164.658 28.2384C164.905 28.0841 165.107 28.0073 165.261 28.0073C165.499 28.0073 165.722 28.0841 165.927 28.2384C166.132 28.392 166.303 28.5377 166.441 28.6741L166.543 28.7767H166.517C167.116 29.3409 167.786 29.8793 168.531 30.3925C169.275 30.9057 170.039 31.363 170.826 31.765C171.612 32.1663 172.395 32.4828 173.173 32.714C173.951 32.9444 174.682 33.06 175.365 33.06C176.305 33.06 177.187 32.9401 178.008 32.7011C178.828 32.4613 179.537 32.124 180.136 31.6875C180.734 31.2518 181.205 30.7256 181.547 30.1105C181.889 29.4946 182.059 28.8112 182.059 28.059C182.059 27.3068 181.837 26.6607 181.393 26.1223C180.948 25.5839 180.367 25.1138 179.649 24.7118C178.931 24.3098 178.123 23.9638 177.226 23.6731C176.327 23.3824 175.425 23.1089 174.519 22.8519C172.433 22.2202 170.609 21.5361 169.044 20.8004C167.479 20.0654 166.176 19.2406 165.132 18.3254C164.09 17.4109 163.307 16.3851 162.786 15.2481C162.263 14.1111 162.004 12.8326 162.004 11.4135C162.004 9.82353 162.324 8.37433 162.966 7.06643C163.606 5.75853 164.517 4.63873 165.696 3.70633C166.876 2.77463 168.296 2.04813 169.954 1.52633C171.612 1.00523 173.467 0.744629 175.52 0.744629C177.075 0.744629 178.657 0.987929 180.265 1.47533C181.872 1.96273 183.359 2.63393 184.727 3.48883C185.138 3.74513 185.557 4.03583 185.985 4.36023C186.411 4.68543 186.804 5.01493 187.163 5.34793C187.522 5.68093 187.818 6.00613 188.049 6.32273C188.279 6.63933 188.395 6.90843 188.395 7.13023C188.395 7.33553 188.343 7.54513 188.242 7.75903C188.138 7.97293 188.01 8.16533 187.857 8.33613L187.087 9.15663V9.13083C186.83 9.40433 186.565 9.68643 186.292 9.97713C186.018 10.2685 185.745 10.5284 185.471 10.7595C185.198 10.9906 184.95 11.1823 184.727 11.3366C184.505 11.4902 184.316 11.5672 184.163 11.5672Z" fill="white"/>
<path d="M195.371 2.54002C195.371 2.23212 195.464 1.96722 195.651 1.74472C195.839 1.52292 196.12 1.41162 196.495 1.41162H201.582C201.872 1.41162 202.143 1.51352 202.4 1.71882C202.655 1.92412 202.783 2.19762 202.783 2.54002V38.3693C202.783 39.1216 202.383 39.4977 201.582 39.4977H196.495C195.746 39.4977 195.371 39.1216 195.371 38.3693V2.54002Z" fill="white"/>
<path d="M208.579 20.4927C208.579 18.6974 208.81 16.9625 209.271 15.2864C209.733 13.611 210.391 12.0469 211.246 10.5933C212.1 9.13966 213.123 7.81456 214.311 6.61796C215.499 5.42136 216.819 4.39916 218.274 3.55286C219.727 2.70656 221.287 2.04836 222.954 1.57816C224.621 1.10796 226.361 0.872559 228.174 0.872559C229.968 0.872559 231.7 1.10796 233.367 1.57816C235.033 2.04836 236.594 2.70656 238.047 3.55286C239.501 4.39916 240.826 5.42136 242.024 6.61796C243.219 7.81456 244.242 9.13966 245.087 10.5933C245.934 12.0469 246.592 13.611 247.063 15.2864C247.532 16.9625 247.768 18.7068 247.768 20.5186C247.768 22.3304 247.532 24.0668 247.063 25.7249C246.592 27.3838 245.934 28.94 245.087 30.3929C244.242 31.8465 243.219 33.1673 242.024 34.3553C240.826 35.544 239.501 36.5612 238.047 37.4075C236.594 38.2538 235.033 38.9077 233.367 39.3693C231.7 39.8309 229.96 40.062 228.148 40.062C226.335 40.062 224.595 39.8309 222.928 39.3693C221.261 38.9077 219.701 38.2502 218.248 37.3946C216.794 36.5397 215.473 35.5182 214.286 34.3295C213.097 33.1415 212.079 31.825 211.233 30.3801C210.386 28.9358 209.733 27.3796 209.271 25.7121C208.81 24.0453 208.579 22.3052 208.579 20.4927ZM215.991 20.4417C215.991 22.1688 216.303 23.7846 216.927 25.2891C217.55 26.7936 218.406 28.1015 219.491 29.2127C220.576 30.3246 221.86 31.2054 223.339 31.855C224.817 32.5046 226.421 32.8291 228.148 32.8291C229.856 32.8291 231.451 32.5046 232.93 31.855C234.409 31.2054 235.697 30.3246 236.791 29.2127C237.885 28.1015 238.744 26.7936 239.369 25.2891C239.992 23.7846 240.305 22.1687 240.305 20.4417C240.305 18.7319 239.992 17.1247 239.369 15.6201C238.744 14.1156 237.884 12.8034 236.791 11.6829C235.697 10.5631 234.409 9.67866 232.93 9.02836C231.451 8.37876 229.856 8.05356 228.148 8.05356C226.421 8.05356 224.817 8.37876 223.339 9.02836C221.86 9.67866 220.576 10.5631 219.491 11.6829C218.406 12.8034 217.55 14.1156 216.927 15.6201C216.303 17.1246 215.991 18.7318 215.991 20.4417Z" fill="white"/>
<path d="M253.487 2.56522C253.487 2.24072 253.586 1.96732 253.783 1.74472C253.978 1.52292 254.257 1.41162 254.615 1.41162H260.514C260.754 1.41162 260.981 1.46692 261.195 1.57812C261.407 1.68942 261.6 1.86452 261.772 2.10352C264.695 6.27552 267.594 10.418 270.466 14.5297C273.339 18.6421 276.236 22.7846 279.16 26.9559V2.38572C279.212 2.07782 279.34 1.83872 279.545 1.66792C279.751 1.49712 279.997 1.41162 280.289 1.41162H285.239C285.581 1.41162 285.875 1.51352 286.123 1.71882C286.372 1.92412 286.495 2.19762 286.495 2.54002V38.4461C286.495 39.1474 286.093 39.4977 285.291 39.4977H279.725C279.349 39.4977 278.998 39.2666 278.672 38.805C275.663 34.445 272.667 30.0892 269.684 25.7378C266.699 21.3864 263.712 17.022 260.72 12.6448V38.3693C260.72 38.7454 260.631 39.0275 260.451 39.2156C260.27 39.4037 259.968 39.4977 259.54 39.4977H254.616C254.222 39.4977 253.936 39.3994 253.757 39.2027C253.578 39.0067 253.487 38.7368 253.487 38.3952L253.487 2.56522Z" fill="white"/>
<path d="M104.504 67.7177V59.5796L101.191 63.2612H100.396L97.0246 59.5796V67.7177H94.3313V54.6382H95.5136L100.784 60.2383L106.016 54.6382H107.198V67.7177H104.504Z" fill="white"/>
<path d="M123.073 67.7174H120.321V62.9509L115.284 54.7349H118.442L121.678 60.1993L124.933 54.7349H128.091L123.073 62.8152L123.073 67.7174Z" fill="white"/>
<path d="M158.484 64.0553C158.484 66.2255 156.314 67.9691 153.175 67.9691C151.47 67.9691 149.164 67.6978 147.943 67.4269V54.7349H153.64C155.868 54.7349 157.864 56.1302 157.864 58.3196C157.864 59.5019 157.264 60.5481 156.062 61.0516C157.225 61.3812 158.484 62.1756 158.484 64.0553ZM150.637 60.2571H153.078C154.318 60.2571 155.21 59.6762 155.21 58.7265C155.21 57.6995 154.318 57.1568 153.078 57.1568H150.637V60.2571ZM155.675 63.7644C155.675 62.6795 154.454 62.253 153.02 62.253H150.637V65.2954C151.373 65.4698 152.458 65.5276 153.02 65.5276C154.512 65.5276 155.675 64.8688 155.675 63.7644Z" fill="white"/>
<path d="M178.428 62.5827C178.428 65.9735 175.967 67.9888 172.828 67.9888C169.689 67.9888 167.209 65.9734 167.209 62.5827V54.6963H169.903V62.4275C169.903 64.4042 171.084 65.4117 172.828 65.3921C174.572 65.373 175.754 64.4042 175.754 62.4275V54.6963H178.428L178.428 62.5827Z" fill="white"/>
<path d="M195.233 55.5104V58.165C194.303 57.5836 193.276 57.0023 191.939 57.0023C190.931 57.0023 189.808 57.4284 189.808 58.4168C189.808 59.2695 190.661 59.5987 191.745 60.0443L193.334 60.7031C195.156 61.4784 195.97 62.5828 195.97 64.0169C195.97 66.3228 193.741 67.9694 191.048 67.9694C189.537 67.9694 188.083 67.3493 187.037 66.6132V63.9586C188.161 64.7722 189.556 65.4313 191.106 65.4313C192.191 65.4313 193.083 65.0047 193.083 64.1521C193.083 63.4742 192.327 63.0672 191.571 62.7959L189.575 62.021C187.56 61.2457 186.998 59.9282 186.998 58.4168C186.998 56.0335 189.188 54.4834 191.61 54.4834C193.121 54.4834 194.4 54.9678 195.233 55.5104Z" fill="white"/>
<path d="M209.422 65.2955H211.612V67.7175H204.539V65.2955H206.729V57.1569H204.539V54.7349H211.612V57.1569H209.422V65.2955Z" fill="white"/>
<path d="M231.71 67.8147L224.037 59.8896V67.7177H221.344V54.6382H222.332L230.005 62.6798V54.7352H232.699V67.8147H231.71Z" fill="white"/>
<path d="M245.222 60.0058H250.957V62.1956H245.222V65.3345H251.713V67.7178H242.528V54.7354H251.713V57.0608H245.222V60.0058Z" fill="white"/>
<path d="M268.324 55.5104V58.165C267.394 57.5836 266.367 57.0023 265.03 57.0023C264.022 57.0023 262.899 57.4284 262.899 58.4168C262.899 59.2695 263.751 59.5987 264.836 60.0443L266.425 60.7031C268.247 61.4784 269.061 62.5828 269.061 64.0169C269.061 66.3228 266.832 67.9694 264.139 67.9694C262.627 67.9694 261.174 67.3493 260.128 66.6132V63.9586C261.252 64.7722 262.647 65.4313 264.197 65.4313C265.282 65.4313 266.173 65.0047 266.173 64.1521C266.173 63.4742 265.418 63.0672 264.662 62.7959L262.666 62.021C260.651 61.2457 260.089 59.9282 260.089 58.4168C260.089 56.0335 262.279 54.4834 264.701 54.4834C266.212 54.4834 267.491 54.9678 268.324 55.5104Z" fill="white"/>
<path d="M284.896 55.5104V58.165C283.966 57.5836 282.939 57.0023 281.602 57.0023C280.595 57.0023 279.471 57.4284 279.471 58.4168C279.471 59.2695 280.323 59.5987 281.408 60.0443L282.997 60.7031C284.819 61.4784 285.633 62.5828 285.633 64.0169C285.633 66.3228 283.404 67.9694 280.711 67.9694C279.199 67.9694 277.746 67.3493 276.7 66.6132V63.9586C277.824 64.7722 279.219 65.4313 280.769 65.4313C281.854 65.4313 282.745 65.0047 282.745 64.1521C282.745 63.4742 281.99 63.0672 281.234 62.7959L279.238 62.021C277.223 61.2457 276.661 59.9282 276.661 58.4168C276.661 56.0335 278.851 54.4834 281.273 54.4834C282.784 54.4834 284.063 54.9678 284.896 55.5104Z" fill="white"/>
<path fill-rule="evenodd" clip-rule="evenodd" d="M9.88933 39.1994L6.86013 39.1032L6.82403 59.502C6.80003 64.9232 10.5744 68.7097 15.9115 68.7217C30.288 68.7217 45.8305 68.6015 60.3993 68.7337C64.5343 68.7698 68.9579 65.1396 68.9579 60.1511L68.9699 39.0912C68.2847 39.0191 66.3975 39.2234 65.4479 39.1994C63.9333 39.1633 63.2481 38.6825 61.974 38.5864L61.962 59.0092C61.962 62.1345 60.784 61.5335 58.1154 61.5335C45.566 61.5335 33.0166 61.4734 20.4792 61.6417L16.236 61.6177C13.279 61.6177 13.7958 60.1752 13.7838 56.4008L13.8199 38.6105C12.6058 38.5985 11.6323 39.1994 9.88933 39.1994Z" fill="white"/>
<mask id="mask0_35_47" style="mask-type:luminance" maskUnits="userSpaceOnUse" x="0" y="0" width="76" height="37">
<path d="M19.0341 28.6403C19.7177 29.9355 19.7057 31.9863 22.1522 33.9651C27.4051 38.2106 34.1571 36.2318 36.5916 31.7224C36.9154 31.1228 37.7069 28.8681 37.8868 28.6282C38.6064 29.8755 38.5704 31.7104 41.0409 33.953C46.0779 38.4983 54.9047 36.4955 56.7036 28.6042L57.1953 29.6596C57.8069 31.6504 58.7064 32.9217 60.3494 34.3008C66.5617 39.5177 77.0795 34.2049 75.6643 25.2702C75.4844 24.1189 73.1698 17.3429 72.6541 15.6639C71.7067 12.5937 70.5434 9.24775 69.6319 6.16555C68.6725 2.97545 67.8809 0.0851482 63.0958 0.0371482C54.7129 -0.0465518 46.2819 0.0373482 37.8869 0.0373482C29.4919 0.0373482 21.0849 0.00134822 12.6778 0.0373482C10.9029 0.0493482 9.1039 0.708948 8.1445 1.66835C6.9692 2.86765 6.6934 4.33075 6.1657 6.00975C5.1703 9.24785 4.1509 12.3899 3.1075 15.628C2.5558 17.319 0.349102 23.9151 0.133302 25.2103C-1.114 32.9097 6.6334 38.4744 13.2775 35.5602C15.724 34.4929 17.7988 32.2742 18.5544 29.7796C18.7583 29.084 18.6743 28.9641 19.0341 28.6403Z" fill="white"/>
</mask>
<g mask="url(#mask0_35_47)">
<path d="M64.9473 -28.7285C57.177 -34.6891 47.6916 -37.4753 38.3613 -37.4628L38.1178 -15.8179C49.0037 -4.82345 53.6707 11.5904 49.3849 27.643L64.9473 -28.7285Z" fill="#8D66A8"/>
<path d="M38.1178 -15.8179L38.3613 -37.4629C29.031 -37.4504 19.4826 -34.6388 11.578 -28.6573L25.8725 27.6743C21.9477 11.6327 26.9842 -4.79409 38.1178 -15.8179Z" fill="#A766A6"/>
<path d="M38.4983 66.4686L49.3849 27.643C53.8595 11.4035 66.4901 0.00458527 81.4648 -4.12052C79.6827 -11.5818 75.8416 -18.4805 69.9374 -24.4436C68.2768 -26.1207 66.6121 -27.4246 64.9473 -28.7285C62.7038 -28.3523 60.4604 -27.9761 58.4014 -27.4136C50.3542 -25.3503 43.5902 -21.2363 38.1178 -15.8178L37.1941 66.2838C37.7518 66.4696 38.1251 66.4691 38.4983 66.4686Z" fill="#3079B1"/>
<path d="M58.4014 -27.4136C50.3542 -25.3503 43.5902 -21.2363 38.1178 -15.8178C49.0037 -4.82342 53.6707 11.5904 49.3849 27.643L64.9474 -28.7285C62.8926 -28.5392 60.6491 -28.163 58.4014 -27.4136Z" fill="#3B64AC"/>
<path d="M81.4648 -4.12052C79.6827 -11.5818 75.8417 -18.4805 69.9374 -24.4436C68.2768 -26.1207 66.6121 -27.4246 64.9473 -28.7285L49.3848 27.643C53.6707 11.5904 66.3056 -0.181816 81.4648 -4.12052Z" fill="#5883C3"/>
<path d="M37.1942 66.2836C37.5674 66.2831 37.9406 66.2826 38.5025 66.0953C39.0644 65.908 39.6221 66.0938 40.1841 65.9065C42.0544 65.5308 43.933 64.4088 45.254 63.1008L69.4083 39.1848C81.2967 27.4136 85.4023 10.8015 81.6536 -4.30738C66.6788 -0.182483 53.8595 11.4033 49.5736 27.4559C54.0482 11.2164 49.1924 -5.01048 38.3065 -16.0049C27.1729 -4.98108 22.1364 11.4457 26.0612 27.4874L36.0745 66.2851C36.259 66.4714 36.6323 66.4709 37.1942 66.2836Z" fill="#39AF7B"/>
<path d="M49.3849 27.6429L38.4983 66.4685C39.0602 66.2812 39.6179 66.467 40.1799 66.2797L81.4648 -4.12061C66.3056 -0.181906 53.6707 11.5903 49.3849 27.6429Z" fill="#0FAAE3"/>
<path d="M45.254 63.1011L69.4083 39.1851C81.2967 27.4139 85.4023 10.8018 81.6536 -4.30713L40.3687 66.0931C42.0545 65.5311 43.7443 64.5959 45.254 63.1011Z" fill="#7DCADA"/>
<path d="M25.8725 27.6741L35.8858 66.4718C36.259 66.4713 36.6322 66.4708 37.1899 66.6567L38.1136 -15.4449C32.7629 -20.8489 26.0913 -24.945 18.0903 -26.9868C16.0439 -27.5438 13.8089 -27.914 11.5738 -28.2842C9.87969 -26.9758 7.9968 -25.4805 6.4871 -23.9858C0.637296 -18.1937 -3.3591 -11.2845 -5.3092 -3.81818C9.5773 -0.106279 21.9477 11.6325 25.8725 27.6741Z" fill="#DA3857"/>
<path d="M38.1178 -15.8179C32.7671 -21.2219 26.0955 -25.318 18.0945 -27.3598C16.0481 -27.9168 13.8131 -28.287 11.578 -28.6572L25.8725 27.6743C21.9477 11.6327 26.9842 -4.79413 38.1178 -15.8179Z" fill="#D23B4E"/>
<path d="M25.8725 27.6744L11.578 -28.6572C9.88391 -27.3488 8.00101 -25.8535 6.49141 -24.3588C0.641508 -18.5666 -3.35489 -11.6574 -5.30499 -4.19113C9.57731 -0.106026 21.9477 11.6328 25.8725 27.6744Z" fill="#E95A25"/>
<path d="M34.3972 66.1006C34.9549 66.2864 35.5126 66.4723 36.0746 66.2849C36.4478 66.2844 36.821 66.2839 37.3787 66.4698C37.7519 66.4693 38.1251 66.4688 38.687 66.2815L49.5736 27.4559C54.0482 11.2164 49.1924 -5.01048 38.3065 -16.0049C27.1729 -4.98118 22.1364 11.4456 26.0612 27.4872C21.9519 11.2593 9.57742 -0.106283 -5.30498 -4.19138C-9.57828 10.7416 -5.66188 27.5297 5.96212 39.2694L29.3945 62.9352C30.6819 64.6128 32.3508 65.5435 34.3972 66.1006Z" fill="#31AF76"/>
<path d="M38.7224 66.5305L49.609 27.7049C54.0836 11.4654 49.2278 -4.76146 38.3419 -15.7559L37.4182 66.3457C37.9759 66.5315 38.3492 66.5309 38.7224 66.5305Z" fill="#00C070"/>
<path d="M36.0931 66.2025L26.0798 27.4048C21.9705 11.1768 9.59592 -0.188826 -5.28638 -4.27393L34.4157 66.0181C34.9776 65.8308 35.5353 66.0166 36.0931 66.2025Z" fill="#FAB80E"/>
<path d="M-5.28636 -4.33594C-9.55966 10.5971 -5.64326 27.3852 5.98074 39.1249L29.4131 62.7907C30.8892 64.2815 32.5581 65.2122 34.42 65.5829L-5.28636 -4.33594Z" fill="#F6A513"/>
</g>
</g>
<defs>
<clipPath id="clip0_35_47">
<rect width="286.495" height="68.7338" fill="white"/>
</clipPath>
</defs>
</svg>
