<?xml version="1.0" encoding="UTF-8"?><svg xmlns="http://www.w3.org/2000/svg" xmlns:xlink="http://www.w3.org/1999/xlink" viewBox="0 0 286.4952 68.7338"><defs><style>.e{fill:#fab80e;}.f{fill:#00c070;}.g{fill:#e95a25;}.h{fill:#f6a513;}.i{fill:#7dcada;}.j{fill:#8d66a8;}.k{fill:#31af76;}.l{fill:#a766a6;}.m{fill:#da3857;}.n{fill:#d23b4e;}.o{fill:#0faae3;}.p,.q{fill:#214356;}.r{fill:#3b64ac;}.s{fill:#39af7b;}.t{fill:#5883c3;}.u{fill:#3079b1;}.v{clip-rule:evenodd;fill:none;}.q{fill-rule:evenodd;}.w{clip-path:url(#d);}</style><clipPath id="d"><path class="v" d="M19.0341,28.6403c.6836,1.2952,.6716,3.346,3.1181,5.3248,5.2529,4.2455,12.0049,2.2667,14.4394-2.2427,.3238-.5996,1.1153-2.8543,1.2952-3.0942,.7196,1.2473,.6836,3.0822,3.1541,5.3248,5.037,4.5453,13.8638,2.5425,15.6627-5.3488l.4917,1.0554c.6116,1.9908,1.5111,3.2621,3.1541,4.6412,6.2123,5.2169,16.7301-.0959,15.3149-9.0306-.1799-1.1513-2.4945-7.9273-3.0102-9.6063-.9474-3.0702-2.1107-6.4162-3.0222-9.4984-.9594-3.1901-1.751-6.0804-6.5361-6.1284C54.7129-.0466,46.2819,.0373,37.8869,.0373S21.0849,.0013,12.6778,.0373c-1.7749,.012-3.5739,.6716-4.5333,1.631-1.1753,1.1993-1.4511,2.6624-1.9788,4.3414-.9954,3.2381-2.0148,6.3802-3.0582,9.6183-.5517,1.691-2.7584,8.2871-2.9742,9.5823-1.2473,7.6994,6.5001,13.2641,13.1442,10.3499,2.4465-1.0674,4.5213-3.286,5.2769-5.7806,.2039-.6956,.1199-.8155,.4797-1.1393h0Z"/></clipPath></defs><g id="a"/><g id="b"><g id="c"><g><g><path class="f" d="M92.7557,2.5911c0-.3761,.0991-.6625,.2957-.8592,.1967-.196,.4565-.3029,.7824-.3201h24.3642c.7867,0,1.1801,.4099,1.1801,1.2311V7.1048c0,.3079-.1019,.5865-.3072,.8341s-.4967,.3718-.8729,.3718h-17.9785v10.2591h4.1806c.8714,0,1.7788,.0043,2.7191,.0122,.9403,.0093,1.8462,.0129,2.7177,.0129h4.1806c.3087,0,.5728,.0897,.7953,.2699,.2225,.1795,.3331,.4745,.3331,.8844v4.36c0,.3079-.0976,.5857-.2943,.8334-.1967,.2484-.4666,.3725-.8083,.3725h-13.8238v13.1052c0,.7185-.402,1.0774-1.2059,1.0774h-5.2315c-.6834-.0337-1.0265-.3934-1.0265-1.0774V2.5911Z"/><path class="f" d="M131.4835,24.0324c0,1.4364,.2053,2.7277,.6159,3.8726,.4106,1.1456,.9877,2.1161,1.7314,2.9115,.7437,.7946,1.6323,1.4019,2.6674,1.8204,1.0337,.4192,2.1836,.6288,3.4498,.6288,1.3337,0,2.5296-.2225,3.5905-.6669,1.0595-.4443,1.9525-1.0731,2.6803-1.885,.7264-.8119,1.282-1.7867,1.6668-2.9244,.3848-1.1363,.5771-2.3889,.5771-3.7571V2.5401c0-.3079,.1105-.5728,.3316-.7953,.2211-.2218,.5025-.3331,.8442-.3331h4.9587c.3575,0,.659,.1113,.9073,.3331,.2455,.2225,.3704,.4874,.3704,.7953V24.3145c0,2.6502-.4278,4.963-1.282,6.9377s-2.007,3.6207-3.4599,4.9372c-1.4514,1.3165-3.1426,2.2999-5.0735,2.9495s-3.9724,.9748-6.1244,.9748c-2.1535,0-4.1949-.3467-6.1259-1.0394-1.9309-.692-3.6207-1.7055-5.0735-3.0385-1.4529-1.3337-2.6057-2.984-3.4599-4.9501-.8542-1.9661-1.2806-4.2229-1.2806-6.7712V2.5401c0-.2735,.0976-.5298,.2943-.7695s.4494-.3589,.7566-.3589h5.2329c.2555,0,.5211,.1113,.7939,.3331,.2742,.2225,.4106,.4874,.4106,.7953V24.0324Z"/><path class="f" d="M184.1628,11.5674c-.2225,0-.4278-.0553-.6159-.1665-.1881-.1105-.402-.2606-.6403-.4486l-.0517-.0258c-.3245-.3245-.7437-.6834-1.2562-1.0767-.514-.3934-1.0868-.7609-1.7185-1.1033-.6331-.3417-1.3122-.6324-2.04-.8722-.7264-.239-1.4658-.3589-2.2181-.3589-.9576,0-1.8046,.107-2.5382,.3209-.7365,.2139-1.3509,.5046-1.8477,.8722-.4953,.3675-.8714,.7989-1.1284,1.2949-.2555,.496-.3848,1.0258-.3848,1.59,0,.6159,.1924,1.1543,.5771,1.6158s.9059,.8722,1.5648,1.2311c.6575,.3589,1.4141,.6884,2.2697,.9877,.8542,.2993,1.7529,.5944,2.6933,.8844,1.0767,.3252,2.1448,.6762,3.2058,1.0516,1.0595,.3769,2.0731,.7997,3.0392,1.2698s1.8678,.992,2.7062,1.5641c.837,.5735,1.5591,1.2311,2.1664,1.9754,.6073,.7437,1.0853,1.5727,1.4371,2.4872,.3503,.9152,.5254,1.9453,.5254,3.0909,0,1.8635-.3761,3.5482-1.1284,5.0527s-1.7917,2.7916-3.1168,3.8597c-1.3251,1.0688-2.8813,1.8893-4.6673,2.4621-1.7874,.5728-3.7068,.8592-5.7583,.8592-1.3165,0-2.6243-.1543-3.9236-.4616-1.2993-.3079-2.5483-.7437-3.7441-1.3079-1.1973-.5649-2.33-1.244-3.3996-2.0393-1.0681-.7953-2.0214-1.6883-2.8584-2.6803v.0258l-.0517-.1026c-.3761-.4271-.5642-.8205-.5642-1.1794,0-.1881,.0517-.3675,.1536-.5391,.1019-.1708,.257-.3589,.4623-.5642l.8456-.8463c.257-.2218,.5298-.4702,.8212-.7437,.29-.2735,.5814-.5211,.8714-.7437,.2914-.2225,.5599-.4106,.8083-.5642,.2469-.1543,.4494-.2311,.603-.2311,.2383,0,.4608,.0768,.6661,.2311,.2053,.1536,.3761,.2993,.514,.4357l.1019,.1026h-.0258c.5987,.5642,1.2691,1.1026,2.0142,1.6158,.7437,.5132,1.5074,.9705,2.2942,1.3725,.7867,.4013,1.5692,.7178,2.3473,.949,.7781,.2304,1.5089,.346,2.1922,.346,.9403,0,1.8218-.1199,2.643-.3589,.8197-.2398,1.529-.5771,2.1276-1.0136,.5987-.4357,1.0696-.9619,1.4112-1.577,.3417-.6159,.5125-1.2993,.5125-2.0515s-.2225-1.3983-.6661-1.9367c-.445-.5384-1.0265-1.0085-1.7443-1.4105s-1.5261-.748-2.4234-1.0387c-.8987-.2907-1.8003-.5642-2.7062-.8212-2.086-.6317-3.9107-1.3158-5.4755-2.0515-1.5648-.735-2.8684-1.5598-3.9121-2.475-1.0423-.9145-1.8247-1.9403-2.3458-3.0773-.5226-1.137-.7824-2.4155-.7824-3.8346,0-1.59,.3201-3.0392,.9619-4.3471,.6403-1.3079,1.5519-2.4277,2.7306-3.3601,1.1801-.9317,2.5999-1.6582,4.2581-2.18,1.6582-.5211,3.513-.7817,5.566-.7817,1.5548,0,3.1369,.2433,4.7448,.7307,1.6065,.4874,3.0938,1.1586,4.462,2.0135,.4106,.2563,.8298,.547,1.2576,.8714,.4264,.3252,.8197,.6547,1.1787,.9877s.6547,.6582,.8858,.9748c.2297,.3166,.346,.5857,.346,.8075,0,.2053-.0517,.4149-.1536,.6288-.1034,.2139-.2311,.4063-.3848,.5771l-.7695,.8205v-.0258c-.257,.2735-.5226,.5556-.7953,.8463-.2742,.2914-.547,.5513-.8212,.7824-.2728,.2311-.5211,.4228-.7437,.5771-.2225,.1536-.4106,.2304-.5642,.2304Z"/><path class="f" d="M195.3709,2.5401c0-.3079,.0933-.5728,.2799-.7953,.1881-.2218,.4695-.3331,.8442-.3331h5.0865c.29,0,.5613,.1019,.8183,.3072,.2555,.2053,.3833,.4788,.3833,.8212V38.3694c0,.7523-.4005,1.1284-1.2016,1.1284h-5.0865c-.7494,0-1.1241-.3761-1.1241-1.1284V2.5401Z"/><path class="f" d="M208.5788,20.4928c0-1.7953,.2311-3.5302,.692-5.2063,.4623-1.6754,1.1198-3.2395,1.9754-4.6931,.8542-1.4536,1.8764-2.7787,3.0651-3.9753,1.1873-1.1966,2.5081-2.2188,3.9624-3.0651,1.4529-.8463,3.0134-1.5045,4.6802-1.9747s3.4068-.7056,5.22-.7056c1.7945,0,3.5259,.2354,5.1927,.7056s3.2273,1.1284,4.6802,1.9747c1.4543,.8463,2.7794,1.8685,3.9767,3.0651,1.1959,1.1966,2.2181,2.5217,3.0637,3.9753,.847,1.4536,1.5045,3.0177,1.9754,4.6931,.4695,1.6761,.7049,3.4204,.7049,5.2322s-.2354,3.5482-.7049,5.2063c-.4709,1.6589-1.1284,3.2151-1.9754,4.668-.8456,1.4536-1.8678,2.7744-3.0637,3.9624-1.1973,1.1887-2.5224,2.2059-3.9767,3.0522-1.4529,.8463-3.0134,1.5002-4.6802,1.9618s-3.4068,.6927-5.2185,.6927c-1.8132,0-3.5532-.2311-5.22-.6927s-3.2273-1.1191-4.6802-1.9747c-1.4543-.8549-2.7751-1.8764-3.9624-3.0651-1.1887-1.188-2.2066-2.5045-3.0522-3.9494-.847-1.4443-1.5002-3.0005-1.9625-4.668-.4608-1.6668-.692-3.4068-.692-5.2193Zm7.4122-.051c0,1.7271,.3115,3.3429,.936,4.8474,.6231,1.5045,1.4787,2.8124,2.5641,3.9236,1.0853,1.1119,2.3688,1.9927,3.8475,2.6423s3.0823,.9741,4.8094,.9741c1.7084,0,3.3034-.3245,4.7821-.9741,1.4787-.6496,2.7665-1.5304,3.8604-2.6423,1.094-1.1112,1.9539-2.4191,2.5784-3.9236,.6231-1.5045,.936-3.1204,.936-4.8474,0-1.7098-.313-3.317-.936-4.8216-.6245-1.5045-1.4845-2.8167-2.5784-3.9372-1.094-1.1198-2.3817-2.0042-3.8604-2.6545-1.4787-.6496-3.0737-.9748-4.7821-.9748-1.7271,0-3.3307,.3252-4.8094,.9748-1.4787,.6503-2.7622,1.5347-3.8475,2.6545-1.0853,1.1205-1.941,2.4327-2.5641,3.9372-.6245,1.5045-.936,3.1117-.936,4.8216Z"/><path class="f" d="M253.487,2.5653c0-.3245,.0991-.5979,.2957-.8205,.1952-.2218,.4738-.3331,.8327-.3331h5.899c.2398,0,.4666,.0553,.6805,.1665,.2125,.1113,.4049,.2864,.5771,.5254,2.923,4.172,5.8215,8.3145,8.6942,12.4262,2.8727,4.1124,5.7698,8.2549,8.6942,12.4262V2.3858c.0517-.3079,.1795-.547,.3848-.7178s.4522-.2563,.7437-.2563h4.9501c.3417,0,.636,.1019,.8844,.3072s.3718,.4788,.3718,.8212V38.4462c0,.7013-.402,1.0516-1.2045,1.0516h-5.566c-.3761,0-.7264-.2311-1.0523-.6927-3.0091-4.36-6.0053-8.7158-8.9885-13.0672-2.9847-4.3514-5.9723-8.7158-8.9641-13.093v25.7245c0,.3761-.089,.6582-.2685,.8463-.1809,.1881-.4838,.2821-.9116,.2821h-4.9242c-.3934,0-.6791-.0983-.8585-.295-.1795-.196-.2699-.4659-.2699-.8075V2.5653Z"/></g><g><path class="p" d="M104.5044,67.7176v-8.1381l-3.3138,3.6816h-.7944l-3.3716-3.6816v8.1381h-2.6933v-13.0795h1.1823l5.2705,5.6001,5.2314-5.6001h1.1823v13.0795h-2.6933Z"/><path class="p" d="M123.073,67.7176h-2.7516v-4.7665l-5.0379-8.216h3.1581l3.2359,5.4644,3.2555-5.4644h3.1581l-5.0183,8.0803v4.9022Z"/><path class="p" d="M158.4843,64.0555c0,2.1702-2.1702,3.9138-5.3092,3.9138-1.7049,0-4.0108-.2713-5.2318-.5422v-12.692h5.697c2.228,0,4.2239,1.3953,4.2239,3.5847,0,1.1823-.6005,2.2285-1.8019,2.732,1.1627,.3296,2.422,1.124,2.422,3.0037Zm-7.8477-3.7982h2.4415c1.2401,0,2.1315-.5809,2.1315-1.5306,0-1.027-.8914-1.5697-2.1315-1.5697h-2.4415v3.1003Zm5.0383,3.5073c0-1.0849-1.221-1.5114-2.6546-1.5114h-2.3837v3.0424c.7366,.1744,1.8215,.2322,2.3837,.2322,1.4919,0,2.6546-.6588,2.6546-1.7632Z"/><path class="p" d="M178.4282,62.5828c0,3.3908-2.4607,5.4061-5.5997,5.4061s-5.6192-2.0154-5.6192-5.4061v-7.8864h2.6933v7.7312c0,1.9767,1.1819,2.9842,2.9259,2.9646,1.7436-.0191,2.9259-.9879,2.9259-2.9646v-7.7312h2.6737v7.8864Z"/><path class="p" d="M195.2331,55.5104v2.6546c-.9301-.5814-1.9567-1.1627-3.2938-1.1627-1.0079,0-2.1315,.4261-2.1315,1.4145,0,.8527,.8527,1.1819,1.9376,1.6275l1.5888,.6588c1.8215,.7753,2.6355,1.8797,2.6355,3.3138,0,2.3059-2.2285,3.9525-4.9218,3.9525-1.5114,0-2.9646-.6201-4.0112-1.3562v-2.6546c1.124,.8136,2.5194,1.4727,4.0695,1.4727,1.0849,0,1.9763-.4266,1.9763-1.2792,0-.6779-.7557-1.0849-1.5114-1.3562l-1.9958-.7749c-2.015-.7753-2.5772-2.0928-2.5772-3.6042,0-2.3833,2.1898-3.9334,4.6117-3.9334,1.5114,0,2.7903,.4844,3.6234,1.027Z"/><path class="p" d="M209.4221,65.2957h2.1898v2.422h-7.0728v-2.422h2.1898v-8.1386h-2.1898v-2.422h7.0728v2.422h-2.1898v8.1386Z"/><path class="p" d="M231.7105,67.8146l-7.6733-7.9251v7.8281h-2.6933v-13.0795h.9883l7.6733,8.0416v-7.9446h2.6933v13.0795h-.9883Z"/><path class="p" d="M245.2217,60.0056h5.7357v2.1898h-5.7357v3.139h6.4915v2.3833h-9.1848v-12.9825h9.1848v2.3254h-6.4915v2.9451Z"/><path class="p" d="M268.3241,55.5104v2.6546c-.9301-.5814-1.9567-1.1627-3.2938-1.1627-1.0079,0-2.1315,.4261-2.1315,1.4145,0,.8527,.8527,1.1819,1.9376,1.6275l1.5888,.6588c1.8215,.7753,2.6355,1.8797,2.6355,3.3138,0,2.3059-2.2285,3.9525-4.9218,3.9525-1.5114,0-2.9646-.6201-4.0112-1.3562v-2.6546c1.124,.8136,2.5194,1.4727,4.0695,1.4727,1.0849,0,1.9763-.4266,1.9763-1.2792,0-.6779-.7557-1.0849-1.5114-1.3562l-1.9958-.7749c-2.015-.7753-2.5772-2.0928-2.5772-3.6042,0-2.3833,2.1898-3.9334,4.6117-3.9334,1.5114,0,2.7903,.4844,3.6234,1.027Z"/><path class="p" d="M284.896,55.5104v2.6546c-.9301-.5814-1.9567-1.1627-3.2938-1.1627-1.0075,0-2.1315,.4261-2.1315,1.4145,0,.8527,.8527,1.1819,1.9376,1.6275l1.5888,.6588c1.8215,.7753,2.6355,1.8797,2.6355,3.3138,0,2.3059-2.2285,3.9525-4.9218,3.9525-1.5114,0-2.9646-.6201-4.0112-1.3562v-2.6546c1.124,.8136,2.5194,1.4727,4.0695,1.4727,1.0849,0,1.9763-.4266,1.9763-1.2792,0-.6779-.7557-1.0849-1.5114-1.3562l-1.9958-.7749c-2.015-.7753-2.5772-2.0928-2.5772-3.6042,0-2.3833,2.1898-3.9334,4.6117-3.9334,1.5114,0,2.7903,.4844,3.6234,1.027Z"/></g><g><path class="q" d="M9.8893,39.1992l-3.0292-.0962-.0361,20.3988c-.024,5.4212,3.7504,9.2077,9.0875,9.2197,14.3765,0,29.919-.1202,44.4878,.012,4.135,.0361,8.5586-3.5941,8.5586-8.5826l.012-21.0599c-.6852-.0721-2.5724,.1322-3.522,.1082-1.5146-.0361-2.1998-.5169-3.4739-.613l-.012,20.4228c0,3.1253-1.178,2.5243-3.8466,2.5243-12.5494,0-25.0988-.0601-37.6362,.1082l-4.2432-.024c-2.957,0-2.4402-1.4425-2.4522-5.2169l.0361-17.7903c-1.2141-.012-2.1877,.589-3.9307,.589h0Z"/><g class="w"><g><path class="j" d="M64.9473-28.7286c-7.7703-5.9606-17.2557-8.7468-26.586-8.7343l-.2435,21.645c10.8859,10.9944,15.5529,27.4082,11.2671,43.4608l15.5625-56.3715Z"/><path class="l" d="M38.1178-15.8179l.2435-21.645c-9.3303,.0125-18.8787,2.8241-26.7833,8.8056L25.8725,27.6743c-3.9248-16.0416,1.1117-32.4684,12.2453-43.4922Z"/><path class="u" d="M38.4983,66.4685l10.8866-38.8256C53.8595,11.4034,66.4901,.0045,81.4648-4.1206c-1.7821-7.4613-5.6232-14.36-11.5274-20.3231-1.6606-1.6771-3.3253-2.981-4.9901-4.2849-2.2435,.3762-4.4869,.7524-6.5459,1.3149-8.0472,2.0633-14.8112,6.1773-20.2836,11.5958l-.9237,82.1016c.5577,.1858,.9309,.1853,1.3041,.1848Z"/><path class="r" d="M58.4014-27.4137c-8.0472,2.0633-14.8112,6.1773-20.2836,11.5958,10.8859,10.9944,15.5529,27.4082,11.2671,43.4608l15.5625-56.3715c-2.0548,.1893-4.2982,.5655-6.5459,1.3149Z"/><path class="t" d="M81.4648-4.1206c-1.7821-7.4613-5.6231-14.36-11.5274-20.3231-1.6606-1.6771-3.3253-2.981-4.9901-4.2849l-15.5625,56.3715C53.6707,11.5903,66.3056-.1819,81.4648-4.1206Z"/><path class="s" d="M37.1942,66.2837c.3732-.0005,.7464-.001,1.3083-.1883,.5619-.1873,1.1196-.0015,1.6816-.1888,1.8703-.3757,3.7489-1.4977,5.0699-2.8057l24.1543-23.916c11.8884-11.7712,15.994-28.3833,12.2453-43.4922C66.6788-.1824,53.8595,11.4034,49.5736,27.456c4.4746-16.2395-.3812-32.4664-11.2671-43.4608C27.1729-4.981,22.1364,11.4458,26.0612,27.4875l10.0133,38.7977c.1845,.1863,.5577,.1858,1.1196-.0015Z"/><path class="o" d="M49.3849,27.6429l-10.8866,38.8256c.5619-.1873,1.1196-.0015,1.6816-.1888L81.4648-4.1206C66.3056-.1819,53.6707,11.5903,49.3849,27.6429Z"/><path class="i" d="M45.2539,63.1008l24.1543-23.916c11.8884-11.7712,15.994-28.3833,12.2453-43.4922L40.3686,66.0928c1.6858-.562,3.3757-1.4972,4.8854-2.992Z"/><path class="m" d="M25.8725,27.6743l10.0133,38.7977c.3732-.0005,.7464-.001,1.3041,.1849l.9237-82.1016c-5.3507-5.404-12.0223-9.5001-20.0233-11.5419-2.0464-.557-4.2814-.9272-6.5165-1.2974-1.6941,1.3084-3.577,2.8037-5.0867,4.2984C.6373-18.1935-3.3591-11.2843-5.3092-3.818,9.5773-.1061,21.9477,11.6327,25.8725,27.6743Z"/><path class="n" d="M38.1178-15.8179c-5.3507-5.404-12.0223-9.5001-20.0233-11.5419-2.0464-.557-4.2814-.9272-6.5165-1.2974L25.8725,27.6743c-3.9248-16.0416,1.1117-32.4684,12.2453-43.4922Z"/><path class="g" d="M25.8725,27.6743L11.578-28.6573c-1.6941,1.3084-3.577,2.8037-5.0866,4.2984C.6415-18.5667-3.3549-11.6575-5.305-4.1912,9.5773-.1061,21.9477,11.6327,25.8725,27.6743Z"/><path class="k" d="M34.3972,66.1008c.5577,.1858,1.1154,.3717,1.6774,.1843,.3732-.0005,.7464-.001,1.3041,.1849,.3732-.0005,.7464-.001,1.3083-.1883l10.8866-38.8256c4.4746-16.2395-.3812-32.4664-11.2671-43.4608C27.1729-4.981,22.1364,11.4458,26.0612,27.4874,21.9519,11.2595,9.5774-.1061-5.305-4.1912c-4.2733,14.933-.3569,31.7211,11.2671,43.4608l23.4324,23.6658c1.2874,1.6776,2.9563,2.6083,5.0027,3.1654Z"/><path class="f" d="M38.7224,66.5307l10.8866-38.8256c4.4746-16.2395-.3812-32.4664-11.2671-43.4608l-.9237,82.1016c.5577,.1858,.9309,.1853,1.3041,.1849Z"/><path class="e" d="M36.0931,66.2026L26.0798,27.4049C21.9705,11.1769,9.5959-.1887-5.2864-4.2738L34.4157,66.0182c.5619-.1873,1.1196-.0015,1.6774,.1844Z"/><path class="h" d="M-5.2864-4.336c-4.2733,14.933-.3569,31.7211,11.2671,43.4608l23.4324,23.6658c1.4761,1.4908,3.145,2.4215,5.0069,2.7922L-5.2864-4.336Z"/></g></g></g></g></g></g></svg>